<?xml version="1.0" encoding="utf-8"?><svg width="auto" height="720" style="overflow:visible " version="1.1" xmlns="http://www.w3.org/2000/svg"><rect x="20" y="20" width="200" height="40" style="fill:white;stroke:black;stroke-width:1" /><text x="30" y="30" font-size="10" style="fill:blue">poema</text><text x="30" y="40" font-size="8" style="fill:black">autor: Federico García Lorca</text><text x="30" y="50" font-size="8" style="fill:black">fecha: Abril 1915</text><text x="30" y="60" font-size="8" style="fill:black">lugar: Granada</text><rect x="240" y="20" width="200" height="40" style="fill:white;stroke:black;stroke-width:1" /><text x="250" y="30" font-size="10" style="fill:blue">titulo</text><path d="M220 40 C240 40 220 40 240 40" style="fill:transparent;stroke:black" /><rect x="306" y="20" width="137" height="40" style="fill:green;stroke:black;stroke-width:1" /><text x="316" y="30" font-size="8" style="fill:white">Alba</text><rect x="240" y="70" width="200" height="40" style="fill:white;stroke:black;stroke-width:1" /><text x="250" y="80" font-size="10" style="fill:blue">verso</text><path d="M220 40 C240 40 220 90 240 90" style="fill:transparent;stroke:black" /><rect x="306" y="70" width="137" height="40" style="fill:green;stroke:black;stroke-width:1" /><text x="316" y="80" font-size="8" style="fill:white">Mi corazón oprimido</text><rect x="240" y="120" width="200" height="40" style="fill:white;stroke:black;stroke-width:1" /><text x="250" y="130" font-size="10" style="fill:blue">verso</text><path d="M220 40 C240 40 220 140 240 140" style="fill:transparent;stroke:black" /><rect x="306" y="120" width="137" height="40" style="fill:green;stroke:black;stroke-width:1" /><text x="316" y="130" font-size="8" style="fill:white">siente junto a la alborada</text><rect x="240" y="170" width="200" height="40" style="fill:white;stroke:black;stroke-width:1" /><text x="250" y="180" font-size="10" style="fill:blue">verso</text><path d="M220 40 C240 40 220 190 240 190" style="fill:transparent;stroke:black" /><rect x="306" y="170" width="137" height="40" style="fill:green;stroke:black;stroke-width:1" /><text x="316" y="180" font-size="8" style="fill:white">el dolor de sus amores</text><rect x="240" y="220" width="200" height="40" style="fill:white;stroke:black;stroke-width:1" /><text x="250" y="230" font-size="10" style="fill:blue">verso</text><path d="M220 40 C240 40 220 240 240 240" style="fill:transparent;stroke:black" /><rect x="306" y="220" width="137" height="40" style="fill:green;stroke:black;stroke-width:1" /><text x="316" y="230" font-size="8" style="fill:white">Y el sueño de las distancias.</text><rect x="240" y="270" width="200" height="40" style="fill:white;stroke:black;stroke-width:1" /><text x="250" y="280" font-size="10" style="fill:blue">verso</text><path d="M220 40 C240 40 220 290 240 290" style="fill:transparent;stroke:black" /><rect x="306" y="270" width="137" height="40" style="fill:green;stroke:black;stroke-width:1" /><text x="316" y="280" font-size="8" style="fill:white">La luz de la aurora lleva</text><rect x="240" y="320" width="200" height="40" style="fill:white;stroke:black;stroke-width:1" /><text x="250" y="330" font-size="10" style="fill:blue">verso</text><path d="M220 40 C240 40 220 340 240 340" style="fill:transparent;stroke:black" /><rect x="306" y="320" width="137" height="40" style="fill:green;stroke:black;stroke-width:1" /><text x="316" y="330" font-size="8" style="fill:white">Semilleros de nostalgias</text><rect x="240" y="370" width="200" height="40" style="fill:white;stroke:black;stroke-width:1" /><text x="250" y="380" font-size="10" style="fill:blue">verso</text><path d="M220 40 C240 40 220 390 240 390" style="fill:transparent;stroke:black" /><rect x="306" y="370" width="137" height="40" style="fill:green;stroke:black;stroke-width:1" /><text x="316" y="380" font-size="8" style="fill:white">Y la tristeza sin ojos</text><rect x="240" y="420" width="200" height="40" style="fill:white;stroke:black;stroke-width:1" /><text x="250" y="430" font-size="10" style="fill:blue">verso</text><path d="M220 40 C240 40 220 440 240 440" style="fill:transparent;stroke:black" /><rect x="306" y="420" width="137" height="40" style="fill:green;stroke:black;stroke-width:1" /><text x="316" y="430" font-size="8" style="fill:white">De la médula del alma.</text><rect x="240" y="470" width="200" height="40" style="fill:white;stroke:black;stroke-width:1" /><text x="250" y="480" font-size="10" style="fill:blue">verso</text><path d="M220 40 C240 40 220 490 240 490" style="fill:transparent;stroke:black" /><rect x="306" y="470" width="137" height="40" style="fill:green;stroke:black;stroke-width:1" /><text x="316" y="480" font-size="8" style="fill:white">La gran tumba de la noche</text><rect x="240" y="520" width="200" height="40" style="fill:white;stroke:black;stroke-width:1" /><text x="250" y="530" font-size="10" style="fill:blue">verso</text><path d="M220 40 C240 40 220 540 240 540" style="fill:transparent;stroke:black" /><rect x="306" y="520" width="137" height="40" style="fill:green;stroke:black;stroke-width:1" /><text x="316" y="530" font-size="8" style="fill:white">Su negro velo levanta</text><rect x="240" y="570" width="200" height="40" style="fill:white;stroke:black;stroke-width:1" /><text x="250" y="580" font-size="10" style="fill:blue">verso</text><path d="M220 40 C240 40 220 590 240 590" style="fill:transparent;stroke:black" /><rect x="306" y="570" width="137" height="40" style="fill:green;stroke:black;stroke-width:1" /><text x="316" y="580" font-size="8" style="fill:white">Para ocultar con el día</text><rect x="240" y="620" width="200" height="40" style="fill:white;stroke:black;stroke-width:1" /><text x="250" y="630" font-size="10" style="fill:blue">verso</text><path d="M220 40 C240 40 220 640 240 640" style="fill:transparent;stroke:black" /><rect x="306" y="620" width="137" height="40" style="fill:green;stroke:black;stroke-width:1" /><text x="316" y="630" font-size="8" style="fill:white">La inmensa cumbre estrellada.</text></svg>