<?xml version="1.0" encoding="utf-8"?><svg width="auto" height="420" style="overflow:visible " version="1.1" xmlns="http://www.w3.org/2000/svg"><rect x="20" y="20" width="200" height="40" style="fill:white;stroke:black;stroke-width:1" /><text x="30" y="30" font-size="10" style="fill:blue">kml</text><text x="30" y="40" font-size="8" style="fill:black">xmlns: http://www.opengis.net/kml/2.2</text><rect x="240" y="20" width="200" height="40" style="fill:white;stroke:black;stroke-width:1" /><text x="250" y="30" font-size="10" style="fill:blue">Document</text><path d="M220 40 C240 40 220 40 240 40" style="fill:transparent;stroke:black" /><text x="250" y="40" font-size="8" style="fill:black">id: Universidad de Oviedo</text><rect x="460" y="20" width="200" height="40" style="fill:white;stroke:black;stroke-width:1" /><text x="470" y="30" font-size="10" style="fill:blue">Placemark</text><path d="M440 40 C460 40 440 40 460 40" style="fill:transparent;stroke:black" /><rect x="680" y="20" width="200" height="40" style="fill:white;stroke:black;stroke-width:1" /><text x="690" y="30" font-size="10" style="fill:blue">name</text><path d="M660 40 C680 40 660 40 680 40" style="fill:transparent;stroke:black" /><rect x="746" y="20" width="137" height="40" style="fill:green;stroke:black;stroke-width:1" /><text x="756" y="30" font-size="8" style="fill:white">Oviedo</text><rect x="680" y="70" width="200" height="40" style="fill:white;stroke:black;stroke-width:1" /><text x="690" y="80" font-size="10" style="fill:blue">description</text><path d="M660 40 C680 40 660 90 680 90" style="fill:transparent;stroke:black" /><rect x="746" y="70" width="137" height="40" style="fill:green;stroke:black;stroke-width:1" /><text x="756" y="80" font-size="8" style="fill:white">Escuela de Ingeniería Informática</text><rect x="680" y="120" width="200" height="40" style="fill:white;stroke:black;stroke-width:1" /><text x="690" y="130" font-size="10" style="fill:blue">Point</text><path d="M660 40 C680 40 660 140 680 140" style="fill:transparent;stroke:black" /><rect x="900" y="120" width="200" height="40" style="fill:white;stroke:black;stroke-width:1" /><text x="910" y="130" font-size="10" style="fill:blue">coordinates</text><path d="M880 140 C900 140 880 140 900 140" style="fill:transparent;stroke:black" /><rect x="966" y="120" width="137" height="40" style="fill:green;stroke:black;stroke-width:1" /><text x="976" y="130" font-size="8" style="fill:white">
-5.851256792487727,43.355098167157855
</text><rect x="900" y="170" width="200" height="40" style="fill:white;stroke:black;stroke-width:1" /><text x="910" y="180" font-size="10" style="fill:blue">altitudeMode</text><path d="M880 140 C900 140 880 190 900 190" style="fill:transparent;stroke:black" /><rect x="966" y="170" width="137" height="40" style="fill:green;stroke:black;stroke-width:1" /><text x="976" y="180" font-size="8" style="fill:white">relativeToGround</text></svg>