<?xml version="1.0" encoding="utf-8"?><svg width="auto" height="6520" style="overflow:visible " version="1.1" xmlns="http://www.w3.org/2000/svg"><rect x="20" y="20" width="200" height="40" style="fill:white;stroke:black;stroke-width:1" /><text x="30" y="30" font-size="10" style="fill:blue">persona</text><text x="30" y="40" font-size="8" style="fill:black">nombre: Eduardo</text><text x="30" y="50" font-size="8" style="fill:black">apellidos: Blanco Bielsa</text><rect x="240" y="20" width="200" height="40" style="fill:white;stroke:black;stroke-width:1" /><text x="250" y="30" font-size="10" style="fill:blue">datos</text><path d="M220 40 C240 40 220 40 240 40" style="fill:transparent;stroke:black" /><rect x="460" y="20" width="200" height="40" style="fill:white;stroke:black;stroke-width:1" /><text x="470" y="30" font-size="10" style="fill:blue">fecha</text><path d="M440 40 C460 40 440 40 460 40" style="fill:transparent;stroke:black" /><rect x="526" y="20" width="137" height="40" style="fill:green;stroke:black;stroke-width:1" /><text x="536" y="30" font-size="8" style="fill:white">09/03/2002</text><rect x="460" y="70" width="200" height="40" style="fill:white;stroke:black;stroke-width:1" /><text x="470" y="80" font-size="10" style="fill:blue">lugar_nacimiento</text><path d="M440 40 C460 40 440 90 460 90" style="fill:transparent;stroke:black" /><rect x="526" y="70" width="137" height="40" style="fill:green;stroke:black;stroke-width:1" /><text x="536" y="80" font-size="8" style="fill:white">Barcelona</text><rect x="460" y="120" width="200" height="40" style="fill:white;stroke:black;stroke-width:1" /><text x="470" y="130" font-size="10" style="fill:blue">coordenadas_nacimiento</text><path d="M440 40 C460 40 440 140 460 140" style="fill:transparent;stroke:black" /><rect x="526" y="120" width="137" height="40" style="fill:green;stroke:black;stroke-width:1" /><text x="536" y="130" font-size="8" style="fill:white">41,3875° N, 2,16835° E, 12</text><rect x="460" y="170" width="200" height="40" style="fill:white;stroke:black;stroke-width:1" /><text x="470" y="180" font-size="10" style="fill:blue">lugar_residencia</text><path d="M440 40 C460 40 440 190 460 190" style="fill:transparent;stroke:black" /><rect x="526" y="170" width="137" height="40" style="fill:green;stroke:black;stroke-width:1" /><text x="536" y="180" font-size="8" style="fill:white">Oviedo</text><rect x="460" y="220" width="200" height="40" style="fill:white;stroke:black;stroke-width:1" /><text x="470" y="230" font-size="10" style="fill:blue">coordenadas_residencia</text><path d="M440 40 C460 40 440 240 460 240" style="fill:transparent;stroke:black" /><rect x="526" y="220" width="137" height="40" style="fill:green;stroke:black;stroke-width:1" /><text x="536" y="230" font-size="8" style="fill:white">43,36271° N, -5,84764° E, 232</text><rect x="460" y="270" width="200" height="40" style="fill:white;stroke:black;stroke-width:1" /><text x="470" y="280" font-size="10" style="fill:blue">fotografia</text><path d="M440 40 C460 40 440 290 460 290" style="fill:transparent;stroke:black" /><rect x="460" y="320" width="200" height="40" style="fill:white;stroke:black;stroke-width:1" /><text x="470" y="330" font-size="10" style="fill:blue">video</text><path d="M440 40 C460 40 440 340 460 340" style="fill:transparent;stroke:black" /><rect x="460" y="370" width="200" height="40" style="fill:white;stroke:black;stroke-width:1" /><text x="470" y="380" font-size="10" style="fill:blue">comentarios</text><path d="M440 40 C460 40 440 390 460 390" style="fill:transparent;stroke:black" /><rect x="526" y="370" width="137" height="40" style="fill:green;stroke:black;stroke-width:1" /><text x="536" y="380" font-size="8" style="fill:white">Buen programador</text><rect x="240" y="470" width="200" height="40" style="fill:white;stroke:black;stroke-width:1" /><text x="250" y="480" font-size="10" style="fill:blue">persona</text><path d="M220 40 C240 40 220 490 240 490" style="fill:transparent;stroke:black" /><text x="250" y="490" font-size="8" style="fill:black">nombre: María</text><text x="250" y="500" font-size="8" style="fill:black">apellidos: Estrada Muñiz</text><rect x="460" y="470" width="200" height="40" style="fill:white;stroke:black;stroke-width:1" /><text x="470" y="480" font-size="10" style="fill:blue">datos</text><path d="M440 490 C460 490 440 490 460 490" style="fill:transparent;stroke:black" /><rect x="680" y="470" width="200" height="40" style="fill:white;stroke:black;stroke-width:1" /><text x="690" y="480" font-size="10" style="fill:blue">fecha</text><path d="M660 490 C680 490 660 490 680 490" style="fill:transparent;stroke:black" /><rect x="746" y="470" width="137" height="40" style="fill:green;stroke:black;stroke-width:1" /><text x="756" y="480" font-size="8" style="fill:white">15/06/2002</text><rect x="680" y="520" width="200" height="40" style="fill:white;stroke:black;stroke-width:1" /><text x="690" y="530" font-size="10" style="fill:blue">lugar_nacimiento</text><path d="M660 490 C680 490 660 540 680 540" style="fill:transparent;stroke:black" /><rect x="746" y="520" width="137" height="40" style="fill:green;stroke:black;stroke-width:1" /><text x="756" y="530" font-size="8" style="fill:white">Avilés</text><rect x="680" y="570" width="200" height="40" style="fill:white;stroke:black;stroke-width:1" /><text x="690" y="580" font-size="10" style="fill:blue">coordenadas_nacimiento</text><path d="M660 490 C680 490 660 590 680 590" style="fill:transparent;stroke:black" /><rect x="746" y="570" width="137" height="40" style="fill:green;stroke:black;stroke-width:1" /><text x="756" y="580" font-size="8" style="fill:white">43.360259,-5.844758, 139</text><rect x="680" y="620" width="200" height="40" style="fill:white;stroke:black;stroke-width:1" /><text x="690" y="630" font-size="10" style="fill:blue">lugar_residencia</text><path d="M660 490 C680 490 660 640 680 640" style="fill:transparent;stroke:black" /><rect x="746" y="620" width="137" height="40" style="fill:green;stroke:black;stroke-width:1" /><text x="756" y="630" font-size="8" style="fill:white">Avilés</text><rect x="680" y="670" width="200" height="40" style="fill:white;stroke:black;stroke-width:1" /><text x="690" y="680" font-size="10" style="fill:blue">coordenadas_residencia</text><path d="M660 490 C680 490 660 690 680 690" style="fill:transparent;stroke:black" /><rect x="746" y="670" width="137" height="40" style="fill:green;stroke:black;stroke-width:1" /><text x="756" y="680" font-size="8" style="fill:white">43.360259,-5.844758, 139</text><rect x="680" y="720" width="200" height="40" style="fill:white;stroke:black;stroke-width:1" /><text x="690" y="730" font-size="10" style="fill:blue">fotografia</text><path d="M660 490 C680 490 660 740 680 740" style="fill:transparent;stroke:black" /><rect x="680" y="770" width="200" height="40" style="fill:white;stroke:black;stroke-width:1" /><text x="690" y="780" font-size="10" style="fill:blue">video</text><path d="M660 490 C680 490 660 790 680 790" style="fill:transparent;stroke:black" /><rect x="680" y="820" width="200" height="40" style="fill:white;stroke:black;stroke-width:1" /><text x="690" y="830" font-size="10" style="fill:blue">comentarios</text><path d="M660 490 C680 490 660 840 680 840" style="fill:transparent;stroke:black" /><rect x="746" y="820" width="137" height="40" style="fill:green;stroke:black;stroke-width:1" /><text x="756" y="830" font-size="8" style="fill:white">Muy guapa</text><rect x="460" y="920" width="200" height="40" style="fill:white;stroke:black;stroke-width:1" /><text x="470" y="930" font-size="10" style="fill:blue">persona</text><path d="M440 490 C460 490 440 940 460 940" style="fill:transparent;stroke:black" /><text x="470" y="940" font-size="8" style="fill:black">nombre: Killian</text><text x="470" y="950" font-size="8" style="fill:black">apellidos: Pérez González</text><rect x="680" y="920" width="200" height="40" style="fill:white;stroke:black;stroke-width:1" /><text x="690" y="930" font-size="10" style="fill:blue">datos</text><path d="M660 940 C680 940 660 940 680 940" style="fill:transparent;stroke:black" /><rect x="900" y="920" width="200" height="40" style="fill:white;stroke:black;stroke-width:1" /><text x="910" y="930" font-size="10" style="fill:blue">fecha</text><path d="M880 940 C900 940 880 940 900 940" style="fill:transparent;stroke:black" /><rect x="966" y="920" width="137" height="40" style="fill:green;stroke:black;stroke-width:1" /><text x="976" y="930" font-size="8" style="fill:white">17/06/1992</text><rect x="900" y="970" width="200" height="40" style="fill:white;stroke:black;stroke-width:1" /><text x="910" y="980" font-size="10" style="fill:blue">lugar_nacimiento</text><path d="M880 940 C900 940 880 990 900 990" style="fill:transparent;stroke:black" /><rect x="966" y="970" width="137" height="40" style="fill:green;stroke:black;stroke-width:1" /><text x="976" y="980" font-size="8" style="fill:white">Jerusalén</text><rect x="900" y="1020" width="200" height="40" style="fill:white;stroke:black;stroke-width:1" /><text x="910" y="1030" font-size="10" style="fill:blue">coordenadas_nacimiento</text><path d="M880 940 C900 940 880 1040 900 1040" style="fill:transparent;stroke:black" /><rect x="966" y="1020" width="137" height="40" style="fill:green;stroke:black;stroke-width:1" /><text x="976" y="1030" font-size="8" style="fill:white">31°.46’ N, 35°12’ E, 400</text><rect x="900" y="1070" width="200" height="40" style="fill:white;stroke:black;stroke-width:1" /><text x="910" y="1080" font-size="10" style="fill:blue">lugar_residencia</text><path d="M880 940 C900 940 880 1090 900 1090" style="fill:transparent;stroke:black" /><rect x="966" y="1070" width="137" height="40" style="fill:green;stroke:black;stroke-width:1" /><text x="976" y="1080" font-size="8" style="fill:white">Jerusalén</text><rect x="900" y="1120" width="200" height="40" style="fill:white;stroke:black;stroke-width:1" /><text x="910" y="1130" font-size="10" style="fill:blue">coordenadas_residencia</text><path d="M880 940 C900 940 880 1140 900 1140" style="fill:transparent;stroke:black" /><rect x="966" y="1120" width="137" height="40" style="fill:green;stroke:black;stroke-width:1" /><text x="976" y="1130" font-size="8" style="fill:white">31°.46’ N, 35°12’ E, 400</text><rect x="900" y="1170" width="200" height="40" style="fill:white;stroke:black;stroke-width:1" /><text x="910" y="1180" font-size="10" style="fill:blue">fotografia</text><path d="M880 940 C900 940 880 1190 900 1190" style="fill:transparent;stroke:black" /><rect x="900" y="1220" width="200" height="40" style="fill:white;stroke:black;stroke-width:1" /><text x="910" y="1230" font-size="10" style="fill:blue">video</text><path d="M880 940 C900 940 880 1240 900 1240" style="fill:transparent;stroke:black" /><rect x="900" y="1270" width="200" height="40" style="fill:white;stroke:black;stroke-width:1" /><text x="910" y="1280" font-size="10" style="fill:blue">comentarios</text><path d="M880 940 C900 940 880 1290 900 1290" style="fill:transparent;stroke:black" /><rect x="966" y="1270" width="137" height="40" style="fill:green;stroke:black;stroke-width:1" /><text x="976" y="1280" font-size="8" style="fill:white">Buen conductor</text><rect x="460" y="1420" width="200" height="40" style="fill:white;stroke:black;stroke-width:1" /><text x="470" y="1430" font-size="10" style="fill:blue">persona</text><path d="M440 490 C460 490 440 1440 460 1440" style="fill:transparent;stroke:black" /><text x="470" y="1440" font-size="8" style="fill:black">nombre: Paco</text><text x="470" y="1450" font-size="8" style="fill:black">apellidos: Pérez González</text><rect x="680" y="1420" width="200" height="40" style="fill:white;stroke:black;stroke-width:1" /><text x="690" y="1430" font-size="10" style="fill:blue">datos</text><path d="M660 1440 C680 1440 660 1440 680 1440" style="fill:transparent;stroke:black" /><rect x="900" y="1420" width="200" height="40" style="fill:white;stroke:black;stroke-width:1" /><text x="910" y="1430" font-size="10" style="fill:blue">fecha</text><path d="M880 1440 C900 1440 880 1440 900 1440" style="fill:transparent;stroke:black" /><rect x="966" y="1420" width="137" height="40" style="fill:green;stroke:black;stroke-width:1" /><text x="976" y="1430" font-size="8" style="fill:white">17/06/1992</text><rect x="900" y="1470" width="200" height="40" style="fill:white;stroke:black;stroke-width:1" /><text x="910" y="1480" font-size="10" style="fill:blue">lugar_nacimiento</text><path d="M880 1440 C900 1440 880 1490 900 1490" style="fill:transparent;stroke:black" /><rect x="966" y="1470" width="137" height="40" style="fill:green;stroke:black;stroke-width:1" /><text x="976" y="1480" font-size="8" style="fill:white">Rusia</text><rect x="900" y="1520" width="200" height="40" style="fill:white;stroke:black;stroke-width:1" /><text x="910" y="1530" font-size="10" style="fill:blue">coordenadas_nacimiento</text><path d="M880 1440 C900 1440 880 1540 900 1540" style="fill:transparent;stroke:black" /><rect x="966" y="1520" width="137" height="40" style="fill:green;stroke:black;stroke-width:1" /><text x="976" y="1530" font-size="8" style="fill:white">61.52401, 105.318756, 400</text><rect x="900" y="1570" width="200" height="40" style="fill:white;stroke:black;stroke-width:1" /><text x="910" y="1580" font-size="10" style="fill:blue">lugar_residencia</text><path d="M880 1440 C900 1440 880 1590 900 1590" style="fill:transparent;stroke:black" /><rect x="966" y="1570" width="137" height="40" style="fill:green;stroke:black;stroke-width:1" /><text x="976" y="1580" font-size="8" style="fill:white">Rusia</text><rect x="900" y="1620" width="200" height="40" style="fill:white;stroke:black;stroke-width:1" /><text x="910" y="1630" font-size="10" style="fill:blue">coordenadas_residencia</text><path d="M880 1440 C900 1440 880 1640 900 1640" style="fill:transparent;stroke:black" /><rect x="966" y="1620" width="137" height="40" style="fill:green;stroke:black;stroke-width:1" /><text x="976" y="1630" font-size="8" style="fill:white">61.52401, 105.318756, 400</text><rect x="900" y="1670" width="200" height="40" style="fill:white;stroke:black;stroke-width:1" /><text x="910" y="1680" font-size="10" style="fill:blue">fotografia</text><path d="M880 1440 C900 1440 880 1690 900 1690" style="fill:transparent;stroke:black" /><rect x="900" y="1720" width="200" height="40" style="fill:white;stroke:black;stroke-width:1" /><text x="910" y="1730" font-size="10" style="fill:blue">video</text><path d="M880 1440 C900 1440 880 1740 900 1740" style="fill:transparent;stroke:black" /><rect x="900" y="1770" width="200" height="40" style="fill:white;stroke:black;stroke-width:1" /><text x="910" y="1780" font-size="10" style="fill:blue">comentarios</text><path d="M880 1440 C900 1440 880 1790 900 1790" style="fill:transparent;stroke:black" /><rect x="966" y="1770" width="137" height="40" style="fill:green;stroke:black;stroke-width:1" /><text x="976" y="1780" font-size="8" style="fill:white">Gran persona</text><rect x="460" y="1920" width="200" height="40" style="fill:white;stroke:black;stroke-width:1" /><text x="470" y="1930" font-size="10" style="fill:blue">persona</text><path d="M440 490 C460 490 440 1940 460 1940" style="fill:transparent;stroke:black" /><text x="470" y="1940" font-size="8" style="fill:black">nombre: Carlos</text><text x="470" y="1950" font-size="8" style="fill:black">apellidos: Pérez González</text><rect x="680" y="1920" width="200" height="40" style="fill:white;stroke:black;stroke-width:1" /><text x="690" y="1930" font-size="10" style="fill:blue">datos</text><path d="M660 1940 C680 1940 660 1940 680 1940" style="fill:transparent;stroke:black" /><rect x="900" y="1920" width="200" height="40" style="fill:white;stroke:black;stroke-width:1" /><text x="910" y="1930" font-size="10" style="fill:blue">fecha</text><path d="M880 1940 C900 1940 880 1940 900 1940" style="fill:transparent;stroke:black" /><rect x="966" y="1920" width="137" height="40" style="fill:green;stroke:black;stroke-width:1" /><text x="976" y="1930" font-size="8" style="fill:white">17/06/1993</text><rect x="900" y="1970" width="200" height="40" style="fill:white;stroke:black;stroke-width:1" /><text x="910" y="1980" font-size="10" style="fill:blue">lugar_nacimiento</text><path d="M880 1940 C900 1940 880 1990 900 1990" style="fill:transparent;stroke:black" /><rect x="966" y="1970" width="137" height="40" style="fill:green;stroke:black;stroke-width:1" /><text x="976" y="1980" font-size="8" style="fill:white">República Dominicana</text><rect x="900" y="2020" width="200" height="40" style="fill:white;stroke:black;stroke-width:1" /><text x="910" y="2030" font-size="10" style="fill:blue">coordenadas_nacimiento</text><path d="M880 1940 C900 1940 880 2040 900 2040" style="fill:transparent;stroke:black" /><rect x="966" y="2020" width="137" height="40" style="fill:green;stroke:black;stroke-width:1" /><text x="976" y="2030" font-size="8" style="fill:white">18.735693, -70.162651, 400</text><rect x="900" y="2070" width="200" height="40" style="fill:white;stroke:black;stroke-width:1" /><text x="910" y="2080" font-size="10" style="fill:blue">lugar_residencia</text><path d="M880 1940 C900 1940 880 2090 900 2090" style="fill:transparent;stroke:black" /><rect x="966" y="2070" width="137" height="40" style="fill:green;stroke:black;stroke-width:1" /><text x="976" y="2080" font-size="8" style="fill:white">República Dominicana</text><rect x="900" y="2120" width="200" height="40" style="fill:white;stroke:black;stroke-width:1" /><text x="910" y="2130" font-size="10" style="fill:blue">coordenadas_residencia</text><path d="M880 1940 C900 1940 880 2140 900 2140" style="fill:transparent;stroke:black" /><rect x="966" y="2120" width="137" height="40" style="fill:green;stroke:black;stroke-width:1" /><text x="976" y="2130" font-size="8" style="fill:white">18.735693, -70.162651, 400</text><rect x="900" y="2170" width="200" height="40" style="fill:white;stroke:black;stroke-width:1" /><text x="910" y="2180" font-size="10" style="fill:blue">fotografia</text><path d="M880 1940 C900 1940 880 2190 900 2190" style="fill:transparent;stroke:black" /><rect x="900" y="2220" width="200" height="40" style="fill:white;stroke:black;stroke-width:1" /><text x="910" y="2230" font-size="10" style="fill:blue">video</text><path d="M880 1940 C900 1940 880 2240 900 2240" style="fill:transparent;stroke:black" /><rect x="900" y="2270" width="200" height="40" style="fill:white;stroke:black;stroke-width:1" /><text x="910" y="2280" font-size="10" style="fill:blue">comentarios</text><path d="M880 1940 C900 1940 880 2290 900 2290" style="fill:transparent;stroke:black" /><rect x="966" y="2270" width="137" height="40" style="fill:green;stroke:black;stroke-width:1" /><text x="976" y="2280" font-size="8" style="fill:white">Gran persona</text><rect x="240" y="2470" width="200" height="40" style="fill:white;stroke:black;stroke-width:1" /><text x="250" y="2480" font-size="10" style="fill:blue">persona</text><path d="M220 40 C240 40 220 2490 240 2490" style="fill:transparent;stroke:black" /><text x="250" y="2490" font-size="8" style="fill:black">nombre: Chen Xin</text><text x="250" y="2500" font-size="8" style="fill:black">apellidos: Pan Wang</text><rect x="460" y="2470" width="200" height="40" style="fill:white;stroke:black;stroke-width:1" /><text x="470" y="2480" font-size="10" style="fill:blue">datos</text><path d="M440 2490 C460 2490 440 2490 460 2490" style="fill:transparent;stroke:black" /><rect x="680" y="2470" width="200" height="40" style="fill:white;stroke:black;stroke-width:1" /><text x="690" y="2480" font-size="10" style="fill:blue">fecha</text><path d="M660 2490 C680 2490 660 2490 680 2490" style="fill:transparent;stroke:black" /><rect x="746" y="2470" width="137" height="40" style="fill:green;stroke:black;stroke-width:1" /><text x="756" y="2480" font-size="8" style="fill:white">15/06/2001</text><rect x="680" y="2520" width="200" height="40" style="fill:white;stroke:black;stroke-width:1" /><text x="690" y="2530" font-size="10" style="fill:blue">lugar_nacimiento</text><path d="M660 2490 C680 2490 660 2540 680 2540" style="fill:transparent;stroke:black" /><rect x="746" y="2520" width="137" height="40" style="fill:green;stroke:black;stroke-width:1" /><text x="756" y="2530" font-size="8" style="fill:white">China</text><rect x="680" y="2570" width="200" height="40" style="fill:white;stroke:black;stroke-width:1" /><text x="690" y="2580" font-size="10" style="fill:blue">coordenadas_nacimiento</text><path d="M660 2490 C680 2490 660 2590 680 2590" style="fill:transparent;stroke:black" /><rect x="746" y="2570" width="137" height="40" style="fill:green;stroke:black;stroke-width:1" /><text x="756" y="2580" font-size="8" style="fill:white">35.8617° N 104.1954° E, 2000</text><rect x="680" y="2620" width="200" height="40" style="fill:white;stroke:black;stroke-width:1" /><text x="690" y="2630" font-size="10" style="fill:blue">lugar_residencia</text><path d="M660 2490 C680 2490 660 2640 680 2640" style="fill:transparent;stroke:black" /><rect x="746" y="2620" width="137" height="40" style="fill:green;stroke:black;stroke-width:1" /><text x="756" y="2630" font-size="8" style="fill:white">Avilés</text><rect x="680" y="2670" width="200" height="40" style="fill:white;stroke:black;stroke-width:1" /><text x="690" y="2680" font-size="10" style="fill:blue">coordenadas_residencia</text><path d="M660 2490 C680 2490 660 2690 680 2690" style="fill:transparent;stroke:black" /><rect x="746" y="2670" width="137" height="40" style="fill:green;stroke:black;stroke-width:1" /><text x="756" y="2680" font-size="8" style="fill:white">43,36271° N, -5,84764° E, 232</text><rect x="680" y="2720" width="200" height="40" style="fill:white;stroke:black;stroke-width:1" /><text x="690" y="2730" font-size="10" style="fill:blue">fotografia</text><path d="M660 2490 C680 2490 660 2740 680 2740" style="fill:transparent;stroke:black" /><rect x="680" y="2770" width="200" height="40" style="fill:white;stroke:black;stroke-width:1" /><text x="690" y="2780" font-size="10" style="fill:blue">video</text><path d="M660 2490 C680 2490 660 2790 680 2790" style="fill:transparent;stroke:black" /><rect x="680" y="2820" width="200" height="40" style="fill:white;stroke:black;stroke-width:1" /><text x="690" y="2830" font-size="10" style="fill:blue">comentarios</text><path d="M660 2490 C680 2490 660 2840 680 2840" style="fill:transparent;stroke:black" /><rect x="746" y="2820" width="137" height="40" style="fill:green;stroke:black;stroke-width:1" /><text x="756" y="2830" font-size="8" style="fill:white">No sabe cocinar</text><rect x="460" y="2920" width="200" height="40" style="fill:white;stroke:black;stroke-width:1" /><text x="470" y="2930" font-size="10" style="fill:blue">persona</text><path d="M440 2490 C460 2490 440 2940 460 2940" style="fill:transparent;stroke:black" /><text x="470" y="2940" font-size="8" style="fill:black">nombre: Luis</text><text x="470" y="2950" font-size="8" style="fill:black">apellidos: Pérez González</text><rect x="680" y="2920" width="200" height="40" style="fill:white;stroke:black;stroke-width:1" /><text x="690" y="2930" font-size="10" style="fill:blue">datos</text><path d="M660 2940 C680 2940 660 2940 680 2940" style="fill:transparent;stroke:black" /><rect x="900" y="2920" width="200" height="40" style="fill:white;stroke:black;stroke-width:1" /><text x="910" y="2930" font-size="10" style="fill:blue">fecha</text><path d="M880 2940 C900 2940 880 2940 900 2940" style="fill:transparent;stroke:black" /><rect x="966" y="2920" width="137" height="40" style="fill:green;stroke:black;stroke-width:1" /><text x="976" y="2930" font-size="8" style="fill:white">17/06/1998</text><rect x="900" y="2970" width="200" height="40" style="fill:white;stroke:black;stroke-width:1" /><text x="910" y="2980" font-size="10" style="fill:blue">lugar_nacimiento</text><path d="M880 2940 C900 2940 880 2990 900 2990" style="fill:transparent;stroke:black" /><rect x="966" y="2970" width="137" height="40" style="fill:green;stroke:black;stroke-width:1" /><text x="976" y="2980" font-size="8" style="fill:white">Albacete</text><rect x="900" y="3020" width="200" height="40" style="fill:white;stroke:black;stroke-width:1" /><text x="910" y="3030" font-size="10" style="fill:blue">coordenadas_nacimiento</text><path d="M880 2940 C900 2940 880 3040 900 3040" style="fill:transparent;stroke:black" /><rect x="966" y="3020" width="137" height="40" style="fill:green;stroke:black;stroke-width:1" /><text x="976" y="3030" font-size="8" style="fill:white">38.99424, -1.85643, 320</text><rect x="900" y="3070" width="200" height="40" style="fill:white;stroke:black;stroke-width:1" /><text x="910" y="3080" font-size="10" style="fill:blue">lugar_residencia</text><path d="M880 2940 C900 2940 880 3090 900 3090" style="fill:transparent;stroke:black" /><rect x="966" y="3070" width="137" height="40" style="fill:green;stroke:black;stroke-width:1" /><text x="976" y="3080" font-size="8" style="fill:white">Albacete</text><rect x="900" y="3120" width="200" height="40" style="fill:white;stroke:black;stroke-width:1" /><text x="910" y="3130" font-size="10" style="fill:blue">coordenadas_residencia</text><path d="M880 2940 C900 2940 880 3140 900 3140" style="fill:transparent;stroke:black" /><rect x="966" y="3120" width="137" height="40" style="fill:green;stroke:black;stroke-width:1" /><text x="976" y="3130" font-size="8" style="fill:white">38.99424, -1.85643, 320</text><rect x="900" y="3170" width="200" height="40" style="fill:white;stroke:black;stroke-width:1" /><text x="910" y="3180" font-size="10" style="fill:blue">fotografia</text><path d="M880 2940 C900 2940 880 3190 900 3190" style="fill:transparent;stroke:black" /><rect x="900" y="3220" width="200" height="40" style="fill:white;stroke:black;stroke-width:1" /><text x="910" y="3230" font-size="10" style="fill:blue">video</text><path d="M880 2940 C900 2940 880 3240 900 3240" style="fill:transparent;stroke:black" /><rect x="900" y="3270" width="200" height="40" style="fill:white;stroke:black;stroke-width:1" /><text x="910" y="3280" font-size="10" style="fill:blue">comentarios</text><path d="M880 2940 C900 2940 880 3290 900 3290" style="fill:transparent;stroke:black" /><rect x="966" y="3270" width="137" height="40" style="fill:green;stroke:black;stroke-width:1" /><text x="976" y="3280" font-size="8" style="fill:white">Buen conductor</text><rect x="460" y="3420" width="200" height="40" style="fill:white;stroke:black;stroke-width:1" /><text x="470" y="3430" font-size="10" style="fill:blue">persona</text><path d="M440 2490 C460 2490 440 3440 460 3440" style="fill:transparent;stroke:black" /><text x="470" y="3440" font-size="8" style="fill:black">nombre: Marcos</text><text x="470" y="3450" font-size="8" style="fill:black">apellidos: Pérez Pérez</text><rect x="680" y="3420" width="200" height="40" style="fill:white;stroke:black;stroke-width:1" /><text x="690" y="3430" font-size="10" style="fill:blue">datos</text><path d="M660 3440 C680 3440 660 3440 680 3440" style="fill:transparent;stroke:black" /><rect x="900" y="3420" width="200" height="40" style="fill:white;stroke:black;stroke-width:1" /><text x="910" y="3430" font-size="10" style="fill:blue">fecha</text><path d="M880 3440 C900 3440 880 3440 900 3440" style="fill:transparent;stroke:black" /><rect x="966" y="3420" width="137" height="40" style="fill:green;stroke:black;stroke-width:1" /><text x="976" y="3430" font-size="8" style="fill:white">17/06/1989</text><rect x="900" y="3470" width="200" height="40" style="fill:white;stroke:black;stroke-width:1" /><text x="910" y="3480" font-size="10" style="fill:blue">lugar_nacimiento</text><path d="M880 3440 C900 3440 880 3490 900 3490" style="fill:transparent;stroke:black" /><rect x="966" y="3470" width="137" height="40" style="fill:green;stroke:black;stroke-width:1" /><text x="976" y="3480" font-size="8" style="fill:white">Australia</text><rect x="900" y="3520" width="200" height="40" style="fill:white;stroke:black;stroke-width:1" /><text x="910" y="3530" font-size="10" style="fill:blue">coordenadas_nacimiento</text><path d="M880 3440 C900 3440 880 3540 900 3540" style="fill:transparent;stroke:black" /><rect x="966" y="3520" width="137" height="40" style="fill:green;stroke:black;stroke-width:1" /><text x="976" y="3530" font-size="8" style="fill:white">-25.274398, 133.775136, 100</text><rect x="900" y="3570" width="200" height="40" style="fill:white;stroke:black;stroke-width:1" /><text x="910" y="3580" font-size="10" style="fill:blue">lugar_residencia</text><path d="M880 3440 C900 3440 880 3590 900 3590" style="fill:transparent;stroke:black" /><rect x="966" y="3570" width="137" height="40" style="fill:green;stroke:black;stroke-width:1" /><text x="976" y="3580" font-size="8" style="fill:white">Australia</text><rect x="900" y="3620" width="200" height="40" style="fill:white;stroke:black;stroke-width:1" /><text x="910" y="3630" font-size="10" style="fill:blue">coordenadas_residencia</text><path d="M880 3440 C900 3440 880 3640 900 3640" style="fill:transparent;stroke:black" /><rect x="966" y="3620" width="137" height="40" style="fill:green;stroke:black;stroke-width:1" /><text x="976" y="3630" font-size="8" style="fill:white">-25.274398, 133.775136, 100</text><rect x="900" y="3670" width="200" height="40" style="fill:white;stroke:black;stroke-width:1" /><text x="910" y="3680" font-size="10" style="fill:blue">fotografia</text><path d="M880 3440 C900 3440 880 3690 900 3690" style="fill:transparent;stroke:black" /><rect x="900" y="3720" width="200" height="40" style="fill:white;stroke:black;stroke-width:1" /><text x="910" y="3730" font-size="10" style="fill:blue">video</text><path d="M880 3440 C900 3440 880 3740 900 3740" style="fill:transparent;stroke:black" /><rect x="900" y="3770" width="200" height="40" style="fill:white;stroke:black;stroke-width:1" /><text x="910" y="3780" font-size="10" style="fill:blue">comentarios</text><path d="M880 3440 C900 3440 880 3790 900 3790" style="fill:transparent;stroke:black" /><rect x="966" y="3770" width="137" height="40" style="fill:green;stroke:black;stroke-width:1" /><text x="976" y="3780" font-size="8" style="fill:white">Gran persona</text><rect x="460" y="3920" width="200" height="40" style="fill:white;stroke:black;stroke-width:1" /><text x="470" y="3930" font-size="10" style="fill:blue">persona</text><path d="M440 2490 C460 2490 440 3940 460 3940" style="fill:transparent;stroke:black" /><text x="470" y="3940" font-size="8" style="fill:black">nombre: Carla</text><text x="470" y="3950" font-size="8" style="fill:black">apellidos: Pérez González</text><rect x="680" y="3920" width="200" height="40" style="fill:white;stroke:black;stroke-width:1" /><text x="690" y="3930" font-size="10" style="fill:blue">datos</text><path d="M660 3940 C680 3940 660 3940 680 3940" style="fill:transparent;stroke:black" /><rect x="900" y="3920" width="200" height="40" style="fill:white;stroke:black;stroke-width:1" /><text x="910" y="3930" font-size="10" style="fill:blue">fecha</text><path d="M880 3940 C900 3940 880 3940 900 3940" style="fill:transparent;stroke:black" /><rect x="966" y="3920" width="137" height="40" style="fill:green;stroke:black;stroke-width:1" /><text x="976" y="3930" font-size="8" style="fill:white">17/06/2000</text><rect x="900" y="3970" width="200" height="40" style="fill:white;stroke:black;stroke-width:1" /><text x="910" y="3980" font-size="10" style="fill:blue">lugar_nacimiento</text><path d="M880 3940 C900 3940 880 3990 900 3990" style="fill:transparent;stroke:black" /><rect x="966" y="3970" width="137" height="40" style="fill:green;stroke:black;stroke-width:1" /><text x="976" y="3980" font-size="8" style="fill:white">Manhattan</text><rect x="900" y="4020" width="200" height="40" style="fill:white;stroke:black;stroke-width:1" /><text x="910" y="4030" font-size="10" style="fill:blue">coordenadas_nacimiento</text><path d="M880 3940 C900 3940 880 4040 900 4040" style="fill:transparent;stroke:black" /><rect x="966" y="4020" width="137" height="40" style="fill:green;stroke:black;stroke-width:1" /><text x="976" y="4030" font-size="8" style="fill:white">18.735693, -70.162651, 400</text><rect x="900" y="4070" width="200" height="40" style="fill:white;stroke:black;stroke-width:1" /><text x="910" y="4080" font-size="10" style="fill:blue">lugar_residencia</text><path d="M880 3940 C900 3940 880 4090 900 4090" style="fill:transparent;stroke:black" /><rect x="966" y="4070" width="137" height="40" style="fill:green;stroke:black;stroke-width:1" /><text x="976" y="4080" font-size="8" style="fill:white">Manhattan</text><rect x="900" y="4120" width="200" height="40" style="fill:white;stroke:black;stroke-width:1" /><text x="910" y="4130" font-size="10" style="fill:blue">coordenadas_residencia</text><path d="M880 3940 C900 3940 880 4140 900 4140" style="fill:transparent;stroke:black" /><rect x="966" y="4120" width="137" height="40" style="fill:green;stroke:black;stroke-width:1" /><text x="976" y="4130" font-size="8" style="fill:white">18.735693, -70.162651, 400</text><rect x="900" y="4170" width="200" height="40" style="fill:white;stroke:black;stroke-width:1" /><text x="910" y="4180" font-size="10" style="fill:blue">fotografia</text><path d="M880 3940 C900 3940 880 4190 900 4190" style="fill:transparent;stroke:black" /><rect x="900" y="4220" width="200" height="40" style="fill:white;stroke:black;stroke-width:1" /><text x="910" y="4230" font-size="10" style="fill:blue">video</text><path d="M880 3940 C900 3940 880 4240 900 4240" style="fill:transparent;stroke:black" /><rect x="900" y="4270" width="200" height="40" style="fill:white;stroke:black;stroke-width:1" /><text x="910" y="4280" font-size="10" style="fill:blue">comentarios</text><path d="M880 3940 C900 3940 880 4290 900 4290" style="fill:transparent;stroke:black" /><rect x="966" y="4270" width="137" height="40" style="fill:green;stroke:black;stroke-width:1" /><text x="976" y="4280" font-size="8" style="fill:white">Gran persona</text><rect x="240" y="4470" width="200" height="40" style="fill:white;stroke:black;stroke-width:1" /><text x="250" y="4480" font-size="10" style="fill:blue">persona</text><path d="M220 40 C240 40 220 4490 240 4490" style="fill:transparent;stroke:black" /><text x="250" y="4490" font-size="8" style="fill:black">nombre: Alejandro</text><text x="250" y="4500" font-size="8" style="fill:black">apellidos: Coalla Martínez</text><rect x="460" y="4470" width="200" height="40" style="fill:white;stroke:black;stroke-width:1" /><text x="470" y="4480" font-size="10" style="fill:blue">datos</text><path d="M440 4490 C460 4490 440 4490 460 4490" style="fill:transparent;stroke:black" /><rect x="680" y="4470" width="200" height="40" style="fill:white;stroke:black;stroke-width:1" /><text x="690" y="4480" font-size="10" style="fill:blue">fecha</text><path d="M660 4490 C680 4490 660 4490 680 4490" style="fill:transparent;stroke:black" /><rect x="746" y="4470" width="137" height="40" style="fill:green;stroke:black;stroke-width:1" /><text x="756" y="4480" font-size="8" style="fill:white">17/06/2003</text><rect x="680" y="4520" width="200" height="40" style="fill:white;stroke:black;stroke-width:1" /><text x="690" y="4530" font-size="10" style="fill:blue">lugar_nacimiento</text><path d="M660 4490 C680 4490 660 4540 680 4540" style="fill:transparent;stroke:black" /><rect x="746" y="4520" width="137" height="40" style="fill:green;stroke:black;stroke-width:1" /><text x="756" y="4530" font-size="8" style="fill:white">Gijón</text><rect x="680" y="4570" width="200" height="40" style="fill:white;stroke:black;stroke-width:1" /><text x="690" y="4580" font-size="10" style="fill:blue">coordenadas_nacimiento</text><path d="M660 4490 C680 4490 660 4590 680 4590" style="fill:transparent;stroke:black" /><rect x="746" y="4570" width="137" height="40" style="fill:green;stroke:black;stroke-width:1" /><text x="756" y="4580" font-size="8" style="fill:white">43,52222° N, -5,64083° E, 139</text><rect x="680" y="4620" width="200" height="40" style="fill:white;stroke:black;stroke-width:1" /><text x="690" y="4630" font-size="10" style="fill:blue">lugar_residencia</text><path d="M660 4490 C680 4490 660 4640 680 4640" style="fill:transparent;stroke:black" /><rect x="746" y="4620" width="137" height="40" style="fill:green;stroke:black;stroke-width:1" /><text x="756" y="4630" font-size="8" style="fill:white">Avilés</text><rect x="680" y="4670" width="200" height="40" style="fill:white;stroke:black;stroke-width:1" /><text x="690" y="4680" font-size="10" style="fill:blue">coordenadas_residencia</text><path d="M660 4490 C680 4490 660 4690 680 4690" style="fill:transparent;stroke:black" /><rect x="746" y="4670" width="137" height="40" style="fill:green;stroke:black;stroke-width:1" /><text x="756" y="4680" font-size="8" style="fill:white">43,52222° N, -5,64083° E, 139</text><rect x="680" y="4720" width="200" height="40" style="fill:white;stroke:black;stroke-width:1" /><text x="690" y="4730" font-size="10" style="fill:blue">fotografia</text><path d="M660 4490 C680 4490 660 4740 680 4740" style="fill:transparent;stroke:black" /><rect x="680" y="4770" width="200" height="40" style="fill:white;stroke:black;stroke-width:1" /><text x="690" y="4780" font-size="10" style="fill:blue">video</text><path d="M660 4490 C680 4490 660 4790 680 4790" style="fill:transparent;stroke:black" /><rect x="680" y="4820" width="200" height="40" style="fill:white;stroke:black;stroke-width:1" /><text x="690" y="4830" font-size="10" style="fill:blue">comentarios</text><path d="M660 4490 C680 4490 660 4840 680 4840" style="fill:transparent;stroke:black" /><rect x="746" y="4820" width="137" height="40" style="fill:green;stroke:black;stroke-width:1" /><text x="756" y="4830" font-size="8" style="fill:white">Buen conductor</text><rect x="460" y="4920" width="200" height="40" style="fill:white;stroke:black;stroke-width:1" /><text x="470" y="4930" font-size="10" style="fill:blue">persona</text><path d="M440 4490 C460 4490 440 4940 460 4940" style="fill:transparent;stroke:black" /><text x="470" y="4940" font-size="8" style="fill:black">nombre: Luis</text><text x="470" y="4950" font-size="8" style="fill:black">apellidos: Pérez González</text><rect x="680" y="4920" width="200" height="40" style="fill:white;stroke:black;stroke-width:1" /><text x="690" y="4930" font-size="10" style="fill:blue">datos</text><path d="M660 4940 C680 4940 660 4940 680 4940" style="fill:transparent;stroke:black" /><rect x="900" y="4920" width="200" height="40" style="fill:white;stroke:black;stroke-width:1" /><text x="910" y="4930" font-size="10" style="fill:blue">fecha</text><path d="M880 4940 C900 4940 880 4940 900 4940" style="fill:transparent;stroke:black" /><rect x="966" y="4920" width="137" height="40" style="fill:green;stroke:black;stroke-width:1" /><text x="976" y="4930" font-size="8" style="fill:white">17/06/1998</text><rect x="900" y="4970" width="200" height="40" style="fill:white;stroke:black;stroke-width:1" /><text x="910" y="4980" font-size="10" style="fill:blue">lugar_nacimiento</text><path d="M880 4940 C900 4940 880 4990 900 4990" style="fill:transparent;stroke:black" /><rect x="966" y="4970" width="137" height="40" style="fill:green;stroke:black;stroke-width:1" /><text x="976" y="4980" font-size="8" style="fill:white">Albacete</text><rect x="900" y="5020" width="200" height="40" style="fill:white;stroke:black;stroke-width:1" /><text x="910" y="5030" font-size="10" style="fill:blue">coordenadas_nacimiento</text><path d="M880 4940 C900 4940 880 5040 900 5040" style="fill:transparent;stroke:black" /><rect x="966" y="5020" width="137" height="40" style="fill:green;stroke:black;stroke-width:1" /><text x="976" y="5030" font-size="8" style="fill:white">38.99424, -1.85643, 320</text><rect x="900" y="5070" width="200" height="40" style="fill:white;stroke:black;stroke-width:1" /><text x="910" y="5080" font-size="10" style="fill:blue">lugar_residencia</text><path d="M880 4940 C900 4940 880 5090 900 5090" style="fill:transparent;stroke:black" /><rect x="966" y="5070" width="137" height="40" style="fill:green;stroke:black;stroke-width:1" /><text x="976" y="5080" font-size="8" style="fill:white">Albacete</text><rect x="900" y="5120" width="200" height="40" style="fill:white;stroke:black;stroke-width:1" /><text x="910" y="5130" font-size="10" style="fill:blue">coordenadas_residencia</text><path d="M880 4940 C900 4940 880 5140 900 5140" style="fill:transparent;stroke:black" /><rect x="966" y="5120" width="137" height="40" style="fill:green;stroke:black;stroke-width:1" /><text x="976" y="5130" font-size="8" style="fill:white">38.99424, -1.85643, 320</text><rect x="900" y="5170" width="200" height="40" style="fill:white;stroke:black;stroke-width:1" /><text x="910" y="5180" font-size="10" style="fill:blue">fotografia</text><path d="M880 4940 C900 4940 880 5190 900 5190" style="fill:transparent;stroke:black" /><rect x="900" y="5220" width="200" height="40" style="fill:white;stroke:black;stroke-width:1" /><text x="910" y="5230" font-size="10" style="fill:blue">video</text><path d="M880 4940 C900 4940 880 5240 900 5240" style="fill:transparent;stroke:black" /><rect x="900" y="5270" width="200" height="40" style="fill:white;stroke:black;stroke-width:1" /><text x="910" y="5280" font-size="10" style="fill:blue">comentarios</text><path d="M880 4940 C900 4940 880 5290 900 5290" style="fill:transparent;stroke:black" /><rect x="966" y="5270" width="137" height="40" style="fill:green;stroke:black;stroke-width:1" /><text x="976" y="5280" font-size="8" style="fill:white">Buen conductor</text><rect x="460" y="5420" width="200" height="40" style="fill:white;stroke:black;stroke-width:1" /><text x="470" y="5430" font-size="10" style="fill:blue">persona</text><path d="M440 4490 C460 4490 440 5440 460 5440" style="fill:transparent;stroke:black" /><text x="470" y="5440" font-size="8" style="fill:black">nombre: Marcos</text><text x="470" y="5450" font-size="8" style="fill:black">apellidos: Pérez Pérez</text><rect x="680" y="5420" width="200" height="40" style="fill:white;stroke:black;stroke-width:1" /><text x="690" y="5430" font-size="10" style="fill:blue">datos</text><path d="M660 5440 C680 5440 660 5440 680 5440" style="fill:transparent;stroke:black" /><rect x="900" y="5420" width="200" height="40" style="fill:white;stroke:black;stroke-width:1" /><text x="910" y="5430" font-size="10" style="fill:blue">fecha</text><path d="M880 5440 C900 5440 880 5440 900 5440" style="fill:transparent;stroke:black" /><rect x="966" y="5420" width="137" height="40" style="fill:green;stroke:black;stroke-width:1" /><text x="976" y="5430" font-size="8" style="fill:white">17/06/1989</text><rect x="900" y="5470" width="200" height="40" style="fill:white;stroke:black;stroke-width:1" /><text x="910" y="5480" font-size="10" style="fill:blue">lugar_nacimiento</text><path d="M880 5440 C900 5440 880 5490 900 5490" style="fill:transparent;stroke:black" /><rect x="966" y="5470" width="137" height="40" style="fill:green;stroke:black;stroke-width:1" /><text x="976" y="5480" font-size="8" style="fill:white">Australia</text><rect x="900" y="5520" width="200" height="40" style="fill:white;stroke:black;stroke-width:1" /><text x="910" y="5530" font-size="10" style="fill:blue">coordenadas_nacimiento</text><path d="M880 5440 C900 5440 880 5540 900 5540" style="fill:transparent;stroke:black" /><rect x="966" y="5520" width="137" height="40" style="fill:green;stroke:black;stroke-width:1" /><text x="976" y="5530" font-size="8" style="fill:white">-25.274398, 133.775136, 100</text><rect x="900" y="5570" width="200" height="40" style="fill:white;stroke:black;stroke-width:1" /><text x="910" y="5580" font-size="10" style="fill:blue">lugar_residencia</text><path d="M880 5440 C900 5440 880 5590 900 5590" style="fill:transparent;stroke:black" /><rect x="966" y="5570" width="137" height="40" style="fill:green;stroke:black;stroke-width:1" /><text x="976" y="5580" font-size="8" style="fill:white">Australia</text><rect x="900" y="5620" width="200" height="40" style="fill:white;stroke:black;stroke-width:1" /><text x="910" y="5630" font-size="10" style="fill:blue">coordenadas_residencia</text><path d="M880 5440 C900 5440 880 5640 900 5640" style="fill:transparent;stroke:black" /><rect x="966" y="5620" width="137" height="40" style="fill:green;stroke:black;stroke-width:1" /><text x="976" y="5630" font-size="8" style="fill:white">-25.274398, 133.775136, 100</text><rect x="900" y="5670" width="200" height="40" style="fill:white;stroke:black;stroke-width:1" /><text x="910" y="5680" font-size="10" style="fill:blue">fotografia</text><path d="M880 5440 C900 5440 880 5690 900 5690" style="fill:transparent;stroke:black" /><rect x="900" y="5720" width="200" height="40" style="fill:white;stroke:black;stroke-width:1" /><text x="910" y="5730" font-size="10" style="fill:blue">video</text><path d="M880 5440 C900 5440 880 5740 900 5740" style="fill:transparent;stroke:black" /><rect x="900" y="5770" width="200" height="40" style="fill:white;stroke:black;stroke-width:1" /><text x="910" y="5780" font-size="10" style="fill:blue">comentarios</text><path d="M880 5440 C900 5440 880 5790 900 5790" style="fill:transparent;stroke:black" /><rect x="966" y="5770" width="137" height="40" style="fill:green;stroke:black;stroke-width:1" /><text x="976" y="5780" font-size="8" style="fill:white">Gran persona</text><rect x="460" y="5920" width="200" height="40" style="fill:white;stroke:black;stroke-width:1" /><text x="470" y="5930" font-size="10" style="fill:blue">persona</text><path d="M440 4490 C460 4490 440 5940 460 5940" style="fill:transparent;stroke:black" /><text x="470" y="5940" font-size="8" style="fill:black">nombre: Carla</text><text x="470" y="5950" font-size="8" style="fill:black">apellidos: Pérez González</text><rect x="680" y="5920" width="200" height="40" style="fill:white;stroke:black;stroke-width:1" /><text x="690" y="5930" font-size="10" style="fill:blue">datos</text><path d="M660 5940 C680 5940 660 5940 680 5940" style="fill:transparent;stroke:black" /><rect x="900" y="5920" width="200" height="40" style="fill:white;stroke:black;stroke-width:1" /><text x="910" y="5930" font-size="10" style="fill:blue">fecha</text><path d="M880 5940 C900 5940 880 5940 900 5940" style="fill:transparent;stroke:black" /><rect x="966" y="5920" width="137" height="40" style="fill:green;stroke:black;stroke-width:1" /><text x="976" y="5930" font-size="8" style="fill:white">17/06/2000</text><rect x="900" y="5970" width="200" height="40" style="fill:white;stroke:black;stroke-width:1" /><text x="910" y="5980" font-size="10" style="fill:blue">lugar_nacimiento</text><path d="M880 5940 C900 5940 880 5990 900 5990" style="fill:transparent;stroke:black" /><rect x="966" y="5970" width="137" height="40" style="fill:green;stroke:black;stroke-width:1" /><text x="976" y="5980" font-size="8" style="fill:white">Manhattan</text><rect x="900" y="6020" width="200" height="40" style="fill:white;stroke:black;stroke-width:1" /><text x="910" y="6030" font-size="10" style="fill:blue">coordenadas_nacimiento</text><path d="M880 5940 C900 5940 880 6040 900 6040" style="fill:transparent;stroke:black" /><rect x="966" y="6020" width="137" height="40" style="fill:green;stroke:black;stroke-width:1" /><text x="976" y="6030" font-size="8" style="fill:white">18.735693, -70.162651, 400</text><rect x="900" y="6070" width="200" height="40" style="fill:white;stroke:black;stroke-width:1" /><text x="910" y="6080" font-size="10" style="fill:blue">lugar_residencia</text><path d="M880 5940 C900 5940 880 6090 900 6090" style="fill:transparent;stroke:black" /><rect x="966" y="6070" width="137" height="40" style="fill:green;stroke:black;stroke-width:1" /><text x="976" y="6080" font-size="8" style="fill:white">Manhattan</text><rect x="900" y="6120" width="200" height="40" style="fill:white;stroke:black;stroke-width:1" /><text x="910" y="6130" font-size="10" style="fill:blue">coordenadas_residencia</text><path d="M880 5940 C900 5940 880 6140 900 6140" style="fill:transparent;stroke:black" /><rect x="966" y="6120" width="137" height="40" style="fill:green;stroke:black;stroke-width:1" /><text x="976" y="6130" font-size="8" style="fill:white">18.735693, -70.162651, 400</text><rect x="900" y="6170" width="200" height="40" style="fill:white;stroke:black;stroke-width:1" /><text x="910" y="6180" font-size="10" style="fill:blue">fotografia</text><path d="M880 5940 C900 5940 880 6190 900 6190" style="fill:transparent;stroke:black" /><rect x="900" y="6220" width="200" height="40" style="fill:white;stroke:black;stroke-width:1" /><text x="910" y="6230" font-size="10" style="fill:blue">video</text><path d="M880 5940 C900 5940 880 6240 900 6240" style="fill:transparent;stroke:black" /><rect x="900" y="6270" width="200" height="40" style="fill:white;stroke:black;stroke-width:1" /><text x="910" y="6280" font-size="10" style="fill:blue">comentarios</text><path d="M880 5940 C900 5940 880 6290 900 6290" style="fill:transparent;stroke:black" /><rect x="966" y="6270" width="137" height="40" style="fill:green;stroke:black;stroke-width:1" /><text x="976" y="6280" font-size="8" style="fill:white">Gran persona</text></svg>