<?xml version="1.0" encoding="utf-8"?><svg width="4000" height="970" style="overflow:visible " version="1.1" xmlns="http://www.w3.org/2000/svg"><rect x="20" y="20" width="200" height="40" style="fill:white;stroke:black;stroke-width:1" /><text x="30" y="30" font-size="10" style="fill:blue">xs:schema</text><text x="30" y="40" font-size="8" style="fill:black">xmlns:xs: http://www.w3.org/2001/XMLSchema</text><text x="30" y="50" font-size="8" style="fill:black">targetNamespace: http://www.uniovi.es</text><text x="30" y="60" font-size="8" style="fill:black">xmlns: http://www.uniovi.es</text><text x="30" y="70" font-size="8" style="fill:black">elementFormDefault: qualified</text><rect x="240" y="20" width="200" height="40" style="fill:white;stroke:black;stroke-width:1" /><text x="250" y="30" font-size="10" style="fill:blue">xs:element</text><path d="M220 40 C240 40 220 40 240 40" style="fill:transparent;stroke:black" /><text x="250" y="40" font-size="8" style="fill:black">name: libros</text><rect x="460" y="20" width="200" height="40" style="fill:white;stroke:black;stroke-width:1" /><text x="470" y="30" font-size="10" style="fill:blue">xs:complexType</text><path d="M440 40 C460 40 440 40 460 40" style="fill:transparent;stroke:black" /><rect x="680" y="20" width="200" height="40" style="fill:white;stroke:black;stroke-width:1" /><text x="690" y="30" font-size="10" style="fill:blue">xs:sequence</text><path d="M660 40 C680 40 660 40 680 40" style="fill:transparent;stroke:black" /><rect x="900" y="20" width="200" height="40" style="fill:white;stroke:black;stroke-width:1" /><text x="910" y="30" font-size="10" style="fill:blue">xs:element</text><path d="M880 40 C900 40 880 40 900 40" style="fill:transparent;stroke:black" /><text x="910" y="40" font-size="8" style="fill:black">name: libro</text><text x="910" y="50" font-size="8" style="fill:black">maxOccurs: unbounded</text><text x="910" y="60" font-size="8" style="fill:black">minOccurs: 1</text><rect x="1120" y="20" width="200" height="40" style="fill:white;stroke:black;stroke-width:1" /><text x="1130" y="30" font-size="10" style="fill:blue">xs:complexType</text><path d="M1100 40 C1120 40 1100 40 1120 40" style="fill:transparent;stroke:black" /><rect x="1340" y="20" width="200" height="40" style="fill:white;stroke:black;stroke-width:1" /><text x="1350" y="30" font-size="10" style="fill:blue">xs:sequence</text><path d="M1320 40 C1340 40 1320 40 1340 40" style="fill:transparent;stroke:black" /><rect x="1560" y="20" width="200" height="40" style="fill:white;stroke:black;stroke-width:1" /><text x="1570" y="30" font-size="10" style="fill:blue">xs:element</text><path d="M1540 40 C1560 40 1540 40 1560 40" style="fill:transparent;stroke:black" /><text x="1570" y="40" font-size="8" style="fill:black">name: titulo</text><text x="1570" y="50" font-size="8" style="fill:black">type: xs:string</text><rect x="1560" y="70" width="200" height="40" style="fill:white;stroke:black;stroke-width:1" /><text x="1570" y="80" font-size="10" style="fill:blue">xs:element</text><path d="M1540 40 C1560 40 1540 90 1560 90" style="fill:transparent;stroke:black" /><text x="1570" y="90" font-size="8" style="fill:black">name: autor</text><text x="1570" y="100" font-size="8" style="fill:black">maxOccurs: unbounded</text><text x="1570" y="110" font-size="8" style="fill:black">minOccurs: 1</text><text x="1570" y="120" font-size="8" style="fill:black">type: xs:string</text><rect x="1560" y="120" width="200" height="40" style="fill:white;stroke:black;stroke-width:1" /><text x="1570" y="130" font-size="10" style="fill:blue">xs:element</text><path d="M1540 40 C1560 40 1540 140 1560 140" style="fill:transparent;stroke:black" /><text x="1570" y="140" font-size="8" style="fill:black">name: any</text><text x="1570" y="150" font-size="8" style="fill:black">type: xs:gYear</text><rect x="1560" y="170" width="200" height="40" style="fill:white;stroke:black;stroke-width:1" /><text x="1570" y="180" font-size="10" style="fill:blue">xs:element</text><path d="M1540 40 C1560 40 1540 190 1560 190" style="fill:transparent;stroke:black" /><text x="1570" y="190" font-size="8" style="fill:black">name: precio</text><rect x="1780" y="170" width="200" height="40" style="fill:white;stroke:black;stroke-width:1" /><text x="1790" y="180" font-size="10" style="fill:blue">xs:complexType</text><path d="M1760 190 C1780 190 1760 190 1780 190" style="fill:transparent;stroke:black" /><rect x="2000" y="170" width="200" height="40" style="fill:white;stroke:black;stroke-width:1" /><text x="2010" y="180" font-size="10" style="fill:blue">xs:simpleContent</text><path d="M1980 190 C2000 190 1980 190 2000 190" style="fill:transparent;stroke:black" /><rect x="2220" y="170" width="200" height="40" style="fill:white;stroke:black;stroke-width:1" /><text x="2230" y="180" font-size="10" style="fill:blue">xs:extension</text><path d="M2200 190 C2220 190 2200 190 2220 190" style="fill:transparent;stroke:black" /><text x="2230" y="190" font-size="8" style="fill:black">base: xs:decimal</text><rect x="2440" y="170" width="200" height="40" style="fill:white;stroke:black;stroke-width:1" /><text x="2450" y="180" font-size="10" style="fill:blue">xs:attribute</text><path d="M2420 190 C2440 190 2420 190 2440 190" style="fill:transparent;stroke:black" /><text x="2450" y="190" font-size="8" style="fill:black">name: moneda</text><text x="2450" y="200" font-size="8" style="fill:black">type: xs:string</text><text x="2450" y="210" font-size="8" style="fill:black">use: required</text><rect x="1560" y="420" width="200" height="40" style="fill:white;stroke:black;stroke-width:1" /><text x="1570" y="430" font-size="10" style="fill:blue">xs:element</text><path d="M1540 40 C1560 40 1540 440 1560 440" style="fill:transparent;stroke:black" /><text x="1570" y="440" font-size="8" style="fill:black">name: editorial</text><text x="1570" y="450" font-size="8" style="fill:black">type: xs:string</text><rect x="1560" y="470" width="200" height="40" style="fill:white;stroke:black;stroke-width:1" /><text x="1570" y="480" font-size="10" style="fill:blue">xs:element</text><path d="M1540 40 C1560 40 1540 490 1560 490" style="fill:transparent;stroke:black" /><text x="1570" y="490" font-size="8" style="fill:black">name: clasificacion</text><text x="1570" y="500" font-size="8" style="fill:black">type: xs:string</text><rect x="1560" y="520" width="200" height="40" style="fill:white;stroke:black;stroke-width:1" /><text x="1570" y="530" font-size="10" style="fill:blue">xs:element</text><path d="M1540 40 C1560 40 1540 540 1560 540" style="fill:transparent;stroke:black" /><text x="1570" y="540" font-size="8" style="fill:black">name: idioma</text><text x="1570" y="550" font-size="8" style="fill:black">type: xs:string</text><rect x="1340" y="620" width="200" height="40" style="fill:white;stroke:black;stroke-width:1" /><text x="1350" y="630" font-size="10" style="fill:blue">xs:attribute</text><path d="M1320 40 C1340 40 1320 640 1340 640" style="fill:transparent;stroke:black" /><text x="1350" y="640" font-size="8" style="fill:black">name: isbn</text><text x="1350" y="650" font-size="8" style="fill:black">type: xs:ID</text><text x="1350" y="660" font-size="8" style="fill:black">use: required</text></svg>