<?xml version="1.0" encoding="utf-8"?><svg width="auto" height="470" style="overflow:visible " version="1.1" xmlns="http://www.w3.org/2000/svg"><rect x="20" y="20" width="200" height="40" style="fill:white;stroke:black;stroke-width:1" /><text x="30" y="30" font-size="10" style="fill:blue">libros</text><text x="30" y="40" font-size="8" style="fill:black">xmlns: http://www.uniovi.es</text><text x="30" y="50" font-size="8" style="fill:black">xmlns:xsi: http://www.w3.org/2001/XMLSchema-instance</text><text x="30" y="60" font-size="8" style="fill:black">xsi:schemaLocation: http://www.uniovi.es libros.xsd</text><rect x="240" y="20" width="200" height="40" style="fill:white;stroke:black;stroke-width:1" /><text x="250" y="30" font-size="10" style="fill:blue">libro</text><path d="M220 40 C240 40 220 40 240 40" style="fill:transparent;stroke:black" /><text x="250" y="40" font-size="8" style="fill:black">isbn: ISBN-9788420633114</text><rect x="460" y="20" width="200" height="40" style="fill:white;stroke:black;stroke-width:1" /><text x="470" y="30" font-size="10" style="fill:blue">titulo</text><path d="M440 40 C460 40 440 40 460 40" style="fill:transparent;stroke:black" /><rect x="526" y="20" width="137" height="40" style="fill:green;stroke:black;stroke-width:1" /><text x="536" y="30" font-size="8" style="fill:white">El Aleph</text><rect x="460" y="70" width="200" height="40" style="fill:white;stroke:black;stroke-width:1" /><text x="470" y="80" font-size="10" style="fill:blue">autor</text><path d="M440 40 C460 40 440 90 460 90" style="fill:transparent;stroke:black" /><rect x="526" y="70" width="137" height="40" style="fill:green;stroke:black;stroke-width:1" /><text x="536" y="80" font-size="8" style="fill:white">Jorge Luis Borges</text><rect x="460" y="120" width="200" height="40" style="fill:white;stroke:black;stroke-width:1" /><text x="470" y="130" font-size="10" style="fill:blue">any</text><path d="M440 40 C460 40 440 140 460 140" style="fill:transparent;stroke:black" /><rect x="526" y="120" width="137" height="40" style="fill:green;stroke:black;stroke-width:1" /><text x="536" y="130" font-size="8" style="fill:white">1946</text><rect x="460" y="170" width="200" height="40" style="fill:white;stroke:black;stroke-width:1" /><text x="470" y="180" font-size="10" style="fill:blue">precio</text><path d="M440 40 C460 40 440 190 460 190" style="fill:transparent;stroke:black" /><text x="470" y="190" font-size="8" style="fill:black">moneda: Euro</text><rect x="526" y="170" width="137" height="40" style="fill:green;stroke:black;stroke-width:1" /><text x="536" y="180" font-size="8" style="fill:white">7.80</text><rect x="460" y="220" width="200" height="40" style="fill:white;stroke:black;stroke-width:1" /><text x="470" y="230" font-size="10" style="fill:blue">editorial</text><path d="M440 40 C460 40 440 240 460 240" style="fill:transparent;stroke:black" /><rect x="526" y="220" width="137" height="40" style="fill:green;stroke:black;stroke-width:1" /><text x="536" y="230" font-size="8" style="fill:white">Alianza Editorial</text><rect x="460" y="270" width="200" height="40" style="fill:white;stroke:black;stroke-width:1" /><text x="470" y="280" font-size="10" style="fill:blue">clasificacion</text><path d="M440 40 C460 40 440 290 460 290" style="fill:transparent;stroke:black" /><rect x="526" y="270" width="137" height="40" style="fill:green;stroke:black;stroke-width:1" /><text x="536" y="280" font-size="8" style="fill:white">Literatura</text><rect x="460" y="320" width="200" height="40" style="fill:white;stroke:black;stroke-width:1" /><text x="470" y="330" font-size="10" style="fill:blue">idioma</text><path d="M440 40 C460 40 440 340 460 340" style="fill:transparent;stroke:black" /><rect x="526" y="320" width="137" height="40" style="fill:green;stroke:black;stroke-width:1" /><text x="536" y="330" font-size="8" style="fill:white">Español</text></svg>