<?xml version="1.0" encoding="utf-8"?><svg width="4000" height="620" style="overflow:visible " version="1.1" xmlns="http://www.w3.org/2000/svg"><rect x="20" y="20" width="200" height="40" style="fill:white;stroke:black;stroke-width:1" /><text x="30" y="30" font-size="10" style="fill:blue">xs:schema</text><text x="30" y="40" font-size="8" style="fill:black">xmlns:xs: http://www.w3.org/2001/XMLSchema</text><text x="30" y="50" font-size="8" style="fill:black">targetNamespace: http://www.uniovi.es</text><text x="30" y="60" font-size="8" style="fill:black">xmlns: http://www.uniovi.es</text><text x="30" y="70" font-size="8" style="fill:black">elementFormDefault: qualified</text><rect x="240" y="20" width="200" height="40" style="fill:white;stroke:black;stroke-width:1" /><text x="250" y="30" font-size="10" style="fill:blue">xs:element</text><path d="M220 40 C240 40 220 40 240 40" style="fill:transparent;stroke:black" /><text x="250" y="40" font-size="8" style="fill:black">name: poesía</text><rect x="460" y="20" width="200" height="40" style="fill:white;stroke:black;stroke-width:1" /><text x="470" y="30" font-size="10" style="fill:blue">xs:complexType</text><path d="M440 40 C460 40 440 40 460 40" style="fill:transparent;stroke:black" /><rect x="680" y="20" width="200" height="40" style="fill:white;stroke:black;stroke-width:1" /><text x="690" y="30" font-size="10" style="fill:blue">xs:sequence</text><path d="M660 40 C680 40 660 40 680 40" style="fill:transparent;stroke:black" /><rect x="900" y="20" width="200" height="40" style="fill:white;stroke:black;stroke-width:1" /><text x="910" y="30" font-size="10" style="fill:blue">xs:element</text><path d="M880 40 C900 40 880 40 900 40" style="fill:transparent;stroke:black" /><text x="910" y="40" font-size="8" style="fill:black">name: poema</text><rect x="1120" y="20" width="200" height="40" style="fill:white;stroke:black;stroke-width:1" /><text x="1130" y="30" font-size="10" style="fill:blue">xs:complexType</text><path d="M1100 40 C1120 40 1100 40 1120 40" style="fill:transparent;stroke:black" /><rect x="1340" y="20" width="200" height="40" style="fill:white;stroke:black;stroke-width:1" /><text x="1350" y="30" font-size="10" style="fill:blue">xs:sequence</text><path d="M1320 40 C1340 40 1320 40 1340 40" style="fill:transparent;stroke:black" /><rect x="1560" y="20" width="200" height="40" style="fill:white;stroke:black;stroke-width:1" /><text x="1570" y="30" font-size="10" style="fill:blue">xs:element</text><path d="M1540 40 C1560 40 1540 40 1560 40" style="fill:transparent;stroke:black" /><text x="1570" y="40" font-size="8" style="fill:black">name: titulo</text><text x="1570" y="50" font-size="8" style="fill:black">type: xs:string</text><rect x="1560" y="70" width="200" height="40" style="fill:white;stroke:black;stroke-width:1" /><text x="1570" y="80" font-size="10" style="fill:blue">xs:element</text><path d="M1540 40 C1560 40 1540 90 1560 90" style="fill:transparent;stroke:black" /><text x="1570" y="90" font-size="8" style="fill:black">name: verso</text><text x="1570" y="100" font-size="8" style="fill:black">maxOccurs: unbounded</text><text x="1570" y="110" font-size="8" style="fill:black">minOccurs: 1</text><text x="1570" y="120" font-size="8" style="fill:black">type: xs:string</text><rect x="1340" y="170" width="200" height="40" style="fill:white;stroke:black;stroke-width:1" /><text x="1350" y="180" font-size="10" style="fill:blue">xs:attribute</text><path d="M1320 40 C1340 40 1320 190 1340 190" style="fill:transparent;stroke:black" /><text x="1350" y="190" font-size="8" style="fill:black">name: autor</text><text x="1350" y="200" font-size="8" style="fill:black">use: required</text><text x="1350" y="210" font-size="8" style="fill:black">type: xs:string</text><rect x="1340" y="220" width="200" height="40" style="fill:white;stroke:black;stroke-width:1" /><text x="1350" y="230" font-size="10" style="fill:blue">xs:attribute</text><path d="M1320 40 C1340 40 1320 240 1340 240" style="fill:transparent;stroke:black" /><text x="1350" y="240" font-size="8" style="fill:black">name: fecha</text><text x="1350" y="250" font-size="8" style="fill:black">use: required</text><text x="1350" y="260" font-size="8" style="fill:black">type: xs:string</text><rect x="1340" y="270" width="200" height="40" style="fill:white;stroke:black;stroke-width:1" /><text x="1350" y="280" font-size="10" style="fill:blue">xs:attribute</text><path d="M1320 40 C1340 40 1320 290 1340 290" style="fill:transparent;stroke:black" /><text x="1350" y="290" font-size="8" style="fill:black">name: lugar</text><text x="1350" y="300" font-size="8" style="fill:black">use: optional</text><text x="1350" y="310" font-size="8" style="fill:black">type: xs:string</text></svg>